#!OML:ASF H:\Punching\Project 1\Capture day 1\Session 1\female.ASF
:FULLY-SPECIFIED
:DEGREES
1460
root -1.42085 14.583 5.53282 11.3176 35.5813 1.08409
lowerback 7.12523 -0.304348 10.053
upperback -3.80842 0.796212 1.55429
thorax -7.99661 -0.0903314 -4.09763
lowerneck -7.11655 -1.73567 6.35029
upperneck 23.4662 -2.70417 -2.39848
head 8.32091 -0.878202 -2.11266
rclavicle 8.34896e-014 1.43125e-014
rhumerus 15.4064 15.7455 -74.1825
rradius 137.945
rwrist -40.0194
rhand -21.1085 -5.7095
rfingers 7.12502
rthumb 5.26955 -35.624
lclavicle 8.34896e-014 1.43125e-014
lhumerus 10.4964 -28.1428 74.9044
lradius 147.363
lwrist 32.434
lhand -10.2045 31.7581
lfingers 7.12502
lthumb 15.7867 61.1344
rfemur -37.0661 -19.6715 10.5864
rtibia 54.4591
rfoot -19.2186 -14.5055
rtoes -7.32021
lfemur -29.234 -14.2886 7.75532
ltibia 43.4769
lfoot -12.6852 -19.5751
ltoes -23.1079
1461
root -1.40017 14.6082 5.53468 11.3746 36.5965 1.45613
lowerback 6.90464 -0.070328 9.97248
upperback -3.8778 1.07049 1.44978
thorax -7.9007 0.0469884 -4.19905
lowerneck -6.7495 -2.15606 5.88438
upperneck 23.5475 -3.27103 -1.97155
head 8.2711 -1.13556 -1.93424
rclavicle -5.51627e-014 3.97569e-014
rhumerus 15.0219 15.2583 -74.1273
rradius 138.042
rwrist -40.3153
rhand -21.183 -5.81137
rfingers 7.12502
rthumb 5.19761 -35.7276
lclavicle -5.51627e-014 3.97569e-014
lhumerus 9.85184 -28.8079 75.1855
lradius 147.071
lwrist 31.8931
lhand -9.81913 31.7087
lfingers 7.12502
lthumb 16.1578 61.0552
rfemur -36.147 -19.7787 9.99849
rtibia 54.0276
rfoot -19.1633 -15.2186
rtoes -6.83317
lfemur -29.2387 -14.6186 7.4769
ltibia 42.6953
lfoot -12.1549 -19.884
ltoes -22.5492
1462
root -1.38184 14.6297 5.53633 11.4378 37.6007 1.84229
lowerback 6.72699 0.153998 9.83155
upperback -3.96189 1.33384 1.35956
thorax -7.84787 0.180378 -4.24876
lowerneck -6.35525 -2.56855 5.43662
upperneck 23.6421 -3.8224 -1.57991
head 8.22582 -1.38756 -1.76802
rclavicle -7.82218e-014 -4.13472e-014
rhumerus 14.6261 14.801 -74.0502
rradius 138.145
rwrist -40.6421
rhand -21.3164 -5.92115
rfingers 7.12502
rthumb 5.0688 -35.8405
lclavicle -7.82218e-014 -4.13472e-014
lhumerus 9.28955 -29.5519 75.4447
lradius 146.585
lwrist 31.6472
lhand -9.76944 31.7715
lfingers 7.12502
lthumb 16.2057 61.1141
rfemur -35.2595 -19.8002 9.41552
rtibia 53.6583
rfoot -19.1228 -16.0079
rtoes -6.30468
lfemur -29.2052 -14.9232 7.18158
ltibia 41.9015
lfoot -11.736 -20.1084
ltoes -22.1778
1463
root -1.36461 14.6486 5.53761 11.4952 38.5956 2.22199
lowerback 6.56327 0.357157 9.6517
upperback -4.03968 1.56905 1.29709
thorax -7.80185 0.303098 -4.24227
lowerneck -5.98009 -2.95886 5.01169
upperneck 23.7617 -4.33861 -1.24348
head 8.19679 -1.62622 -1.62087
rclavicle -5.86415e-014 -6.36111e-015
rhumerus 14.2592 14.4018 -73.9366
rradius 138.258
rwrist -40.9959
rhand -21.488 -6.01724
rfingers 7.12502
rthumb 4.90314 -35.9405
lclavicle -5.86415e-014 -6.36111e-015
lhumerus 8.84362 -30.3499 75.6679
lradius 145.962
lwrist 31.6474
lhand -10.1019 31.9796
lfingers 7.12502
lthumb 15.8855 61.348
rfemur -34.3964 -19.7779 8.85984
rtibia 53.3401
rfoot -19.1052 -16.8403
rtoes -5.74561
lfemur -29.1351 -15.2331 6.88663
ltibia 41.0996
lfoot -11.3978 -20.2909
ltoes -21.873
1464
root -1.34797 14.665 5.5386 11.5324 39.5657 2.58062
lowerback 6.41571 0.53904 9.44619
upperback -4.10613 1.77745 1.26552
thorax -7.75893 0.415467 -4.18428
lowerneck -5.63419 -3.32083 4.60807
upperneck 23.9078 -4.8107 -0.966066
head 8.18539 -1.84764 -1.49351
rclavicle -4.77083e-014 1.59028e-014
rhumerus 13.9329 14.059 -73.7771
rradius 138.377
rwrist -41.363
rhand -21.6477 -6.05731
rfingers 7.12502
rthumb 4.74897 -35.9841
lclavicle -4.77083e-014 1.59028e-014
lhumerus 8.48314 -31.1682 75.8623
lradius 145.267
lwrist 31.8556
lhand -10.772 32.2701
lfingers 7.12502
lthumb 15.2401 61.6887
rfemur -33.5518 -19.7249 8.34422
rtibia 53.0583
rfoot -19.1042 -17.6881
rtoes -5.16584
lfemur -29.0207 -15.5581 6.60097
ltibia 40.2974
lfoot -11.1199 -20.4571
ltoes -21.5461
1465
root -1.33102 14.6793 5.5389 11.5339 40.498 2.90155
lowerback 6.28688 0.699883 9.24006
upperback -4.15906 1.96188 1.2644
thorax -7.71789 0.517564 -4.09009
lowerneck -5.307 -3.65265 4.22274
upperneck 24.0658 -5.23509 -0.745842
head 8.18392 -2.05054 -1.38425
rclavicle -4.33351e-014 3.18055e-014
rhumerus 13.6475 13.778 -73.5739
rradius 138.498
rwrist -41.7145
rhand -21.7835 -6.04481
rfingers 7.12502
rthumb 4.61781 -35.9745
lclavicle -4.33351e-014 3.18055e-014
lhumerus 8.18112 -31.9449 76.0388
lradius 144.543
lwrist 32.2505
lhand -11.6495 32.5469
lfingers 7.12502
lthumb 14.3948 62.0277
rfemur -32.7164 -19.6637 7.8786
rtibia 52.7954
rfoot -19.108 -18.5136
rtoes -4.58843
lfemur -28.8623 -15.9077 6.33379
ltibia 39.5131
lfoot -10.8885 -20.618
ltoes -21.1483
1466
root -1.31175 14.6927 5.53808 11.5093 41.3845 3.20406
lowerback 6.16097 0.838163 9.04527
upperback -4.18941 2.11818 1.28609
thorax -7.65979 0.6075 -3.97381
lowerneck -5.04001 -3.94824 3.8579
upperneck 24.2602 -5.60431 -0.591604
head 8.20702 -2.23121 -1.29749
rclavicle 1.8487e-014 -4.45278e-014
rhumerus 13.4151 13.5651 -73.3233
rradius 138.613
rwrist -42.0113
rhand -21.9244 -6.00334
rfingers 7.12502
rthumb 4.48172 -35.9359
lclavicle 1.8487e-014 -4.45278e-014
lhumerus 7.91831 -32.6264 76.2088
lradius 143.852
lwrist 32.7711
lhand -12.5793 32.8161
lfingers 7.12502
lthumb 13.4987 62.3586
rfemur -31.8785 -19.6388 7.43163
rtibia 52.536
rfoot -19.1219 -19.2438
rtoes -4.03697
lfemur -28.6617 -16.3108 6.06094
ltibia 38.7669
lfoot -10.6772 -20.7774
ltoes -20.589
1467
root -1.2903 14.7048 5.53606 11.4578 42.1988 3.48876
lowerback 6.03634 0.962621 8.8626
upperback -4.19233 2.25674 1.32167
thorax -7.57647 0.690358 -3.84668
lowerneck -4.81833 -4.20784 3.51246
upperneck 24.4628 -5.91998 -0.488795
head 8.24202 -2.38999 -1.22779
rclavicle -7.52897e-014 -4.45278e-014
rhumerus 13.2399 13.4122 -73.034
rradius 138.712
rwrist -42.2092
rhand -22.0276 -5.9365
rfingers 7.12502
rthumb 4.38216 -35.8712
lclavicle -7.52897e-014 -4.45278e-014
lhumerus 7.68562 -33.1785 76.3699
lradius 143.216
lwrist 33.3604
lhand -13.4101 33.0165
lfingers 7.12502
lthumb 12.6979 62.6105
rfemur -31.0452 -19.6407 6.998
rtibia 52.2711
rfoot -19.1274 -19.8608
rtoes -3.55581
lfemur -28.4206 -16.7476 5.77725
ltibia 38.0835
lfoot -10.5161 -20.8687
ltoes -19.9907
1468
root -1.2673 14.7156 5.53298 11.3671 42.9129 3.72417
lowerback 5.93646 1.07993 8.71138
upperback -4.18611 2.39221 1.37074
thorax -7.49911 0.770299 -3.72262
lowerneck -4.64878 -4.43201 3.18685
upperneck 24.6902 -6.18473 -0.429014
head 8.29544 -2.52673 -1.1734
rclavicle 1.7344e-014 1.74931e-014
rhumerus 13.0887 13.3277 -72.7259
rradius 138.79
rwrist -42.2752
rhand -22.0918 -5.8436
rfingers 7.12502
rthumb 4.32009 -35.7795
lclavicle 1.7344e-014 1.74931e-014
lhumerus 7.44904 -33.6006 76.5345
lradius 142.663
lwrist 33.9354
lhand -14.0431 33.1492
lfingers 7.12502
lthumb 12.0875 62.78
rfemur -30.2441 -19.639 6.60502
rtibia 51.9981
rfoot -19.1167 -20.3611
rtoes -3.1776
lfemur -28.1451 -17.1776 5.507
ltibia 37.4842
lfoot -10.4161 -20.9156
ltoes -19.3893
1469
root -1.24319 14.7249 5.52894 11.2317 43.5151 3.89083
lowerback 5.84715 1.18463 8.58733
upperback -4.16461 2.51542 1.44353
thorax -7.41433 0.844147 -3.58702
lowerneck -4.54422 -4.61162 2.88218
upperneck 24.931 -6.38645 -0.41134
head 8.3653 -2.6361 -1.13364
rclavicle -5.48646e-014 1.11319e-014
rhumerus 12.9856 13.3209 -72.4039
rradius 138.839
rwrist -42.2124
rhand -22.1189 -5.76066
rfingers 7.12502
rthumb 4.29396 -35.6971
lclavicle -5.48646e-014 1.11319e-014
lhumerus 7.21471 -33.881 76.7003
lradius 142.201
lwrist 34.3965
lhand -14.4317 33.2345
lfingers 7.12502
lthumb 11.7128 62.8871
rfemur -29.4952 -19.6276 6.26979
rtibia 51.7197
rfoot -19.0893 -20.7404
rtoes -2.92637
lfemur -27.8497 -17.5707 5.26564
ltibia 36.9871
lfoot -10.3905 -20.9192
ltoes -18.8629
1470
root -1.2202 14.7317 5.52398 11.0333 43.9755 3.95185
lowerback 5.81024 1.29027 8.50645
upperback -4.15024 2.65131 1.53034
thorax -7.36676 0.920455 -3.4637
lowerneck -4.47173 -4.75616 2.59899
upperneck 25.1633 -6.54281 -0.404425
head 8.43878 -2.72412 -1.09838
rclavicle 7.82218e-014 -1.90833e-014
rhumerus 12.8819 13.3647 -72.0948
rradius 138.867
rwrist -42.0397
rhand -22.0883 -5.68102
rfingers 7.12502
rthumb 4.32348 -35.6169
lclavicle 7.82218e-014 -1.90833e-014
lhumerus 6.95991 -34.0762 76.8683
lradius 141.821
lwrist 34.6633
lhand -14.5877 33.2445
lfingers 7.12502
lthumb 11.5624 62.9055
rfemur -28.8369 -19.5527 6.03289
rtibia 51.444
rfoot -19.0272 -21.0385
rtoes -2.78559
lfemur -27.5356 -17.8635 5.08351
ltibia 36.5996
lfoot -10.4777 -20.8829
ltoes -18.5468
1471
root -1.19833 14.7363 5.51749 10.7934 44.3051 3.92671
lowerback 5.80019 1.38698 8.46125
upperback -4.13103 2.78161 1.62436
thorax -7.33039 0.991926 -3.35279
lowerneck -4.44383 -4.86215 2.35067
upperneck 25.368 -6.65269 -0.401897
head 8.51097 -2.78919 -1.06769
rclavicle -7.85199e-015 9.54166e-015
rhumerus 12.8008 13.4453 -71.8068
rradius 138.878
rwrist -41.8128
rhand -22.0298 -5.62094
rfingers 7.12502
rthumb 4.37998 -35.5556
lclavicle -7.85199e-015 9.54166e-015
lhumerus 6.73881 -34.2074 77.0187
lradius 141.496
lwrist 34.6664
lhand -14.5579 33.2079
lfingers 7.12502
lthumb 11.5911 62.8674
rfemur -28.2772 -19.4498 5.87808
rtibia 51.178
rfoot -18.9193 -21.2494
rtoes -2.76156
lfemur -27.2222 -18.056 4.94728
ltibia 36.3194
lfoot -10.6624 -20.8075
ltoes -18.4548
1472
root -1.17866 14.7391 5.5108 10.4942 44.4856 3.79367
lowerback 5.82215 1.48037 8.44943
upperback -4.10846 2.91394 1.72205
thorax -7.30858 1.06213 -3.25788
lowerneck -4.46565 -4.92994 2.1502
upperneck 25.5509 -6.72142 -0.39033
head 8.58463 -2.83109 -1.03995
rclavicle 3.12837e-014 -3.65764e-014
rhumerus 12.7238 13.532 -71.5602
rradius 138.883
rwrist -41.6047
rhand -21.9538 -5.58091
rfingers 7.12502
rthumb 4.45335 -35.5141
lclavicle 3.12837e-014 -3.65764e-014
lhumerus 6.5659 -34.3145 77.1429
lradius 141.207
lwrist 34.3642
lhand -14.3954 33.1875
lfingers 7.12502
lthumb 11.7478 62.8381
rfemur -27.8298 -19.2812 5.82795
rtibia 50.9316
rfoot -18.7824 -21.392
rtoes -2.79106
lfemur -26.8874 -18.1157 4.87151
ltibia 36.1294
lfoot -10.9454 -20.694
ltoes -18.5913
1473
root -1.16168 14.7399 5.50388 10.1557 44.507 3.58031
lowerback 5.89345 1.57089 8.45592
upperback -4.09322 3.04891 1.80608
thorax -7.32227 1.13039 -3.18999
lowerneck -4.50737 -4.96265 2.00525
upperneck 25.6977 -6.75697 -0.351919
head 8.64946 -2.85149 -1.00987
rclavicle 4.8901e-014 -9.54166e-015
rhumerus 12.6235 13.6018 -71.3811
rradius 138.89
rwrist -41.4776
rhand -21.8715 -5.562
rfingers 7.12502
rthumb 4.53281 -35.4935
lclavicle 4.8901e-014 -9.54166e-015
lhumerus 6.43293 -34.4309 77.2355
lradius 140.922
lwrist 33.7645
lhand -14.1547 33.1468
lfingers 7.12502
lthumb 11.98 62.7839
rfemur -27.5032 -19.0455 5.86301
rtibia 50.7142
rfoot -18.621 -21.4845
rtoes -2.81576
lfemur -26.5159 -18.037 4.83362
ltibia 36.0024
lfoot -11.3277 -20.5323
ltoes -18.9581
1474
root -1.14684 14.7396 5.49692 9.82473 44.3588 3.34517
lowerback 5.99765 1.6621 8.4502
upperback -4.0846 3.18494 1.85601
thorax -7.36099 1.19728 -3.15313
lowerneck -4.58147 -4.96138 1.93376
upperneck 25.8289 -6.76299 -0.29106
head 8.71373 -2.85008 -0.982854
rclavicle -1.95803e-014 0
rhumerus 12.4898 13.6346 -71.2872
rradius 138.904
rwrist -41.4744
rhand -21.8422 -5.57241
rfingers 7.12502
rthumb 4.56111 -35.5033
lclavicle -1.95803e-014 0
lhumerus 6.36637 -34.5798 77.2836
lradius 140.626
lwrist 32.9096
lhand -13.8898 33.1349
lfingers 7.12502
lthumb 12.2353 62.757
rfemur -27.308 -18.7516 5.935
rtibia 50.5372
rfoot -18.4399 -21.5085
rtoes -2.81508
lfemur -26.0893 -17.8385 4.78686
ltibia 35.9022
lfoot -11.7968 -20.2973
ltoes -19.5297
